<svg id="svg" xmlns="http://www.w3.org/2000/svg" xmlns:xlink="http://www.w3.org/1999/xlink" width="400" height="394.9367088607595" viewBox="0, 0, 400,394.9367088607595"><g id="svgg"><path stroke="none" fill="#FFFFFF" d="M194.177 19.494 C 194.177 19.984,194.008 20.000,188.861 20.000 C 184.304 20.000,183.544 20.054,183.544 20.380 C 183.544 20.696,183.038 20.759,180.506 20.759 C 177.975 20.759,177.468 20.823,177.468 21.139 C 177.468 21.449,177.046 21.519,175.190 21.519 C 173.080 21.519,172.911 21.556,172.911 22.025 C 172.911 22.483,172.743 22.532,171.139 22.532 C 169.733 22.532,169.367 22.610,169.367 22.911 C 169.367 23.213,169.001 23.291,167.595 23.291 C 165.992 23.291,165.823 23.339,165.823 23.797 C 165.823 24.256,165.654 24.304,164.051 24.304 C 162.644 24.304,162.278 24.382,162.278 24.684 C 162.278 24.970,161.969 25.063,161.013 25.063 C 159.916 25.063,159.747 25.131,159.747 25.570 C 159.747 26.015,159.578 26.076,158.354 26.076 C 157.286 26.076,156.962 26.164,156.962 26.456 C 156.962 26.711,156.706 26.835,156.179 26.835 C 155.609 26.835,155.360 26.973,155.263 27.342 C 155.154 27.761,154.918 27.848,153.895 27.848 C 152.964 27.848,152.658 27.942,152.658 28.228 C 152.658 28.493,152.391 28.608,151.772 28.608 C 151.055 28.608,150.886 28.704,150.886 29.114 C 150.886 29.524,150.717 29.620,150.000 29.620 C 149.381 29.620,149.114 29.735,149.114 30.000 C 149.114 30.265,148.847 30.380,148.228 30.380 C 147.511 30.380,147.342 30.476,147.342 30.886 C 147.342 31.325,147.173 31.392,146.076 31.392 C 145.120 31.392,144.810 31.485,144.810 31.772 C 144.810 32.037,144.543 32.152,143.924 32.152 C 143.207 32.152,143.038 32.248,143.038 32.658 C 143.038 33.068,142.869 33.165,142.152 33.165 C 141.533 33.165,141.266 33.279,141.266 33.544 C 141.266 33.810,140.999 33.924,140.380 33.924 C 139.662 33.924,139.494 34.020,139.494 34.430 C 139.494 34.768,139.325 34.937,138.987 34.937 C 138.706 34.937,138.481 35.105,138.481 35.316 C 138.481 35.582,138.214 35.696,137.595 35.696 C 136.878 35.696,136.709 35.793,136.709 36.203 C 136.709 36.612,136.540 36.709,135.823 36.709 C 135.204 36.709,134.937 36.823,134.937 37.089 C 134.937 37.297,134.766 37.468,134.557 37.468 C 134.346 37.468,134.177 37.693,134.177 37.975 C 134.177 38.385,134.008 38.481,133.291 38.481 C 132.672 38.481,132.405 38.596,132.405 38.861 C 132.405 39.126,132.138 39.241,131.519 39.241 C 130.802 39.241,130.633 39.337,130.633 39.747 C 130.633 40.084,130.464 40.253,130.127 40.253 C 129.845 40.253,129.620 40.422,129.620 40.633 C 129.620 40.842,129.449 41.013,129.241 41.013 C 129.030 41.013,128.861 41.238,128.861 41.519 C 128.861 41.929,128.692 42.025,127.975 42.025 C 127.356 42.025,127.089 42.140,127.089 42.405 C 127.089 42.616,126.864 42.785,126.582 42.785 C 126.245 42.785,126.076 42.954,126.076 43.291 C 126.076 43.701,125.907 43.797,125.190 43.797 C 124.571 43.797,124.304 43.912,124.304 44.177 C 124.304 44.386,124.133 44.557,123.924 44.557 C 123.713 44.557,123.544 44.782,123.544 45.063 C 123.544 45.401,123.376 45.570,123.038 45.570 C 122.757 45.570,122.532 45.738,122.532 45.949 C 122.532 46.215,122.264 46.329,121.646 46.329 C 120.928 46.329,120.759 46.426,120.759 46.835 C 120.759 47.117,120.591 47.342,120.380 47.342 C 120.171 47.342,120.000 47.513,120.000 47.722 C 120.000 47.932,119.775 48.101,119.494 48.101 C 119.156 48.101,118.987 48.270,118.987 48.608 C 118.987 48.889,118.819 49.114,118.608 49.114 C 118.399 49.114,118.228 49.285,118.228 49.494 C 118.228 49.705,118.003 49.873,117.722 49.873 C 117.384 49.873,117.215 50.042,117.215 50.380 C 117.215 50.661,117.046 50.886,116.835 50.886 C 116.627 50.886,116.456 51.057,116.456 51.266 C 116.456 51.477,116.231 51.646,115.949 51.646 C 115.612 51.646,115.443 51.814,115.443 52.152 C 115.443 52.562,115.274 52.658,114.557 52.658 C 113.938 52.658,113.671 52.773,113.671 53.038 C 113.671 53.247,113.500 53.418,113.291 53.418 C 113.080 53.418,112.911 53.643,112.911 53.924 C 112.911 54.205,112.743 54.430,112.532 54.430 C 112.323 54.430,112.152 54.601,112.152 54.810 C 112.152 55.021,111.927 55.190,111.646 55.190 C 111.308 55.190,111.139 55.359,111.139 55.696 C 111.139 55.977,110.970 56.203,110.759 56.203 C 110.551 56.203,110.380 56.373,110.380 56.582 C 110.380 56.793,110.155 56.962,109.873 56.962 C 109.592 56.962,109.367 57.131,109.367 57.342 C 109.367 57.551,109.196 57.722,108.987 57.722 C 108.776 57.722,108.608 57.947,108.608 58.228 C 108.608 58.565,108.439 58.734,108.101 58.734 C 107.691 58.734,107.595 58.903,107.595 59.620 C 107.595 60.239,107.480 60.506,107.215 60.506 C 107.006 60.506,106.835 60.677,106.835 60.886 C 106.835 61.097,106.610 61.266,106.329 61.266 C 105.992 61.266,105.823 61.435,105.823 61.772 C 105.823 62.053,105.654 62.278,105.443 62.278 C 105.234 62.278,105.063 62.449,105.063 62.658 C 105.063 62.869,104.838 63.038,104.557 63.038 C 104.219 63.038,104.051 63.207,104.051 63.544 C 104.051 63.826,103.882 64.051,103.671 64.051 C 103.462 64.051,103.291 64.222,103.291 64.430 C 103.291 64.641,103.066 64.810,102.785 64.810 C 102.447 64.810,102.278 64.979,102.278 65.316 C 102.278 65.598,102.110 65.823,101.899 65.823 C 101.634 65.823,101.519 66.090,101.519 66.709 C 101.519 67.426,101.423 67.595,101.013 67.595 C 100.731 67.595,100.506 67.764,100.506 67.975 C 100.506 68.184,100.335 68.354,100.127 68.354 C 99.861 68.354,99.747 68.622,99.747 69.241 C 99.747 69.958,99.650 70.127,99.241 70.127 C 98.903 70.127,98.734 70.295,98.734 70.633 C 98.734 70.914,98.565 71.139,98.354 71.139 C 98.146 71.139,97.975 71.310,97.975 71.519 C 97.975 71.730,97.750 71.899,97.468 71.899 C 97.131 71.899,96.962 72.068,96.962 72.405 C 96.962 72.686,96.793 72.911,96.582 72.911 C 96.317 72.911,96.203 73.179,96.203 73.797 C 96.203 74.515,96.106 74.684,95.696 74.684 C 95.286 74.684,95.190 74.852,95.190 75.570 C 95.190 76.188,95.075 76.456,94.810 76.456 C 94.601 76.456,94.430 76.627,94.430 76.835 C 94.430 77.046,94.205 77.215,93.924 77.215 C 93.514 77.215,93.418 77.384,93.418 78.101 C 93.418 78.720,93.303 78.987,93.038 78.987 C 92.827 78.987,92.658 79.212,92.658 79.494 C 92.658 79.831,92.489 80.000,92.152 80.000 C 91.742 80.000,91.646 80.169,91.646 80.886 C 91.646 81.505,91.531 81.772,91.266 81.772 C 91.001 81.772,90.886 82.039,90.886 82.658 C 90.886 83.376,90.790 83.544,90.380 83.544 C 89.970 83.544,89.873 83.713,89.873 84.430 C 89.873 85.049,89.759 85.316,89.494 85.316 C 89.285 85.316,89.114 85.487,89.114 85.696 C 89.114 85.907,88.889 86.076,88.608 86.076 C 88.198 86.076,88.101 86.245,88.101 86.962 C 88.101 87.581,87.987 87.848,87.722 87.848 C 87.456 87.848,87.342 88.115,87.342 88.734 C 87.342 89.451,87.245 89.620,86.835 89.620 C 86.426 89.620,86.329 89.789,86.329 90.506 C 86.329 91.125,86.215 91.392,85.949 91.392 C 85.664 91.392,85.570 91.699,85.570 92.629 C 85.570 93.652,85.482 93.888,85.063 93.997 C 84.695 94.094,84.557 94.343,84.557 94.913 C 84.557 95.440,84.433 95.696,84.177 95.696 C 83.914 95.696,83.797 95.960,83.797 96.553 C 83.797 97.196,83.672 97.442,83.291 97.542 C 82.868 97.652,82.785 97.887,82.785 98.964 C 82.785 99.941,82.693 100.253,82.405 100.253 C 82.119 100.253,82.025 100.559,82.025 101.489 C 82.025 102.513,81.938 102.749,81.519 102.858 C 81.096 102.969,81.013 103.203,81.013 104.280 C 81.013 105.258,80.921 105.570,80.633 105.570 C 80.347 105.570,80.253 105.876,80.253 106.806 C 80.253 107.829,80.166 108.065,79.747 108.175 C 79.324 108.285,79.241 108.520,79.241 109.597 C 79.241 110.574,79.149 110.886,78.861 110.886 C 78.559 110.886,78.481 111.252,78.481 112.658 C 78.481 114.262,78.433 114.430,77.975 114.430 C 77.508 114.430,77.468 114.599,77.468 116.582 C 77.468 118.326,77.396 118.734,77.089 118.734 C 76.779 118.734,76.709 119.156,76.709 121.013 C 76.709 122.869,76.639 123.291,76.329 123.291 C 76.013 123.291,75.949 123.797,75.949 126.329 C 75.949 129.198,75.921 129.367,75.443 129.367 C 74.950 129.367,74.937 129.536,74.937 135.949 C 74.937 141.632,74.885 142.532,74.557 142.532 C 74.253 142.532,74.177 142.911,74.177 144.430 C 74.177 145.949,74.253 146.329,74.557 146.329 C 74.885 146.329,74.937 147.229,74.937 152.911 C 74.937 159.325,74.950 159.494,75.443 159.494 C 75.922 159.494,75.949 159.662,75.949 162.658 C 75.949 165.302,76.012 165.823,76.329 165.823 C 76.637 165.823,76.709 166.231,76.709 167.975 C 76.709 169.719,76.781 170.127,77.089 170.127 C 77.390 170.127,77.468 170.492,77.468 171.899 C 77.468 173.502,77.517 173.671,77.975 173.671 C 78.433 173.671,78.481 173.840,78.481 175.443 C 78.481 176.850,78.559 177.215,78.861 177.215 C 79.162 177.215,79.241 177.581,79.241 178.987 C 79.241 180.591,79.289 180.759,79.747 180.759 C 80.192 180.759,80.253 180.928,80.253 182.152 C 80.253 183.221,80.341 183.544,80.633 183.544 C 80.920 183.544,81.013 183.854,81.013 184.810 C 81.013 185.907,81.080 186.076,81.519 186.076 C 81.964 186.076,82.025 186.245,82.025 187.468 C 82.025 188.537,82.114 188.861,82.405 188.861 C 82.661 188.861,82.785 189.117,82.785 189.644 C 82.785 190.214,82.922 190.463,83.291 190.560 C 83.710 190.669,83.797 190.905,83.797 191.928 C 83.797 192.858,83.892 193.165,84.177 193.165 C 84.442 193.165,84.557 193.432,84.557 194.051 C 84.557 194.768,84.653 194.937,85.063 194.937 C 85.473 194.937,85.570 195.105,85.570 195.823 C 85.570 196.442,85.684 196.709,85.949 196.709 C 86.215 196.709,86.329 196.976,86.329 197.595 C 86.329 198.312,86.426 198.481,86.835 198.481 C 87.245 198.481,87.342 198.650,87.342 199.367 C 87.342 199.986,87.456 200.253,87.722 200.253 C 87.987 200.253,88.101 200.520,88.101 201.139 C 88.101 201.857,88.198 202.025,88.608 202.025 C 89.017 202.025,89.114 202.194,89.114 202.911 C 89.114 203.530,89.228 203.797,89.494 203.797 C 89.759 203.797,89.873 204.065,89.873 204.684 C 89.873 205.401,89.970 205.570,90.380 205.570 C 90.790 205.570,90.886 205.738,90.886 206.456 C 90.886 207.075,91.001 207.342,91.266 207.342 C 91.475 207.342,91.646 207.513,91.646 207.722 C 91.646 207.932,91.871 208.101,92.152 208.101 C 92.562 208.101,92.658 208.270,92.658 208.987 C 92.658 209.606,92.773 209.873,93.038 209.873 C 93.303 209.873,93.418 210.141,93.418 210.759 C 93.418 211.477,93.514 211.646,93.924 211.646 C 94.262 211.646,94.430 211.814,94.430 212.152 C 94.430 212.433,94.599 212.658,94.810 212.658 C 95.075 212.658,95.190 212.925,95.190 213.544 C 95.190 214.262,95.286 214.430,95.696 214.430 C 95.977 214.430,96.203 214.599,96.203 214.810 C 96.203 215.019,96.373 215.190,96.582 215.190 C 96.793 215.190,96.962 215.415,96.962 215.696 C 96.962 216.034,97.131 216.203,97.468 216.203 C 97.878 216.203,97.975 216.371,97.975 217.089 C 97.975 217.707,98.089 217.975,98.354 217.975 C 98.563 217.975,98.734 218.146,98.734 218.354 C 98.734 218.565,98.959 218.734,99.241 218.734 C 99.650 218.734,99.747 218.903,99.747 219.620 C 99.747 220.239,99.861 220.506,100.127 220.506 C 100.338 220.506,100.506 220.731,100.506 221.013 C 100.506 221.350,100.675 221.519,101.013 221.519 C 101.294 221.519,101.519 221.688,101.519 221.899 C 101.519 222.108,101.690 222.278,101.899 222.278 C 102.110 222.278,102.278 222.504,102.278 222.785 C 102.278 223.122,102.447 223.291,102.785 223.291 C 103.195 223.291,103.291 223.460,103.291 224.177 C 103.291 224.796,103.406 225.063,103.671 225.063 C 103.880 225.063,104.051 225.234,104.051 225.443 C 104.051 225.654,104.276 225.823,104.557 225.823 C 104.967 225.823,105.063 225.992,105.063 226.709 C 105.063 227.328,105.178 227.595,105.443 227.595 C 105.708 227.595,105.823 227.862,105.823 228.481 C 105.823 229.198,105.919 229.367,106.329 229.367 C 106.768 229.367,106.835 229.536,106.835 230.633 C 106.835 231.589,106.928 231.899,107.215 231.899 C 107.529 231.899,107.595 232.363,107.595 234.557 C 107.595 237.046,107.627 237.215,108.101 237.215 C 108.601 237.215,108.608 237.384,108.608 250.127 C 108.608 261.435,108.655 263.038,108.987 263.038 C 109.300 263.038,109.367 263.488,109.367 265.570 C 109.367 267.932,109.401 268.101,109.873 268.101 C 110.332 268.101,110.380 268.270,110.380 269.873 C 110.380 271.280,110.458 271.646,110.759 271.646 C 111.025 271.646,111.139 271.913,111.139 272.532 C 111.139 273.249,111.236 273.418,111.646 273.418 C 112.055 273.418,112.152 273.586,112.152 274.304 C 112.152 274.923,112.266 275.190,112.532 275.190 C 112.743 275.190,112.911 275.415,112.911 275.696 C 112.911 275.977,113.080 276.203,113.291 276.203 C 113.500 276.203,113.671 276.373,113.671 276.582 C 113.671 276.793,113.896 276.962,114.177 276.962 C 114.515 276.962,114.684 277.131,114.684 277.468 C 114.684 277.750,114.852 277.975,115.063 277.975 C 115.272 277.975,115.443 278.146,115.443 278.354 C 115.443 278.620,115.710 278.734,116.329 278.734 C 117.046 278.734,117.215 278.831,117.215 279.241 C 117.215 279.726,117.384 279.747,121.392 279.747 C 125.401 279.747,125.570 279.726,125.570 279.241 C 125.570 278.959,125.738 278.734,125.949 278.734 C 126.158 278.734,126.329 278.563,126.329 278.354 C 126.329 278.143,126.554 277.975,126.835 277.975 C 127.173 277.975,127.342 277.806,127.342 277.468 C 127.342 277.187,127.511 276.962,127.722 276.962 C 127.930 276.962,128.101 276.791,128.101 276.582 C 128.101 276.371,128.326 276.203,128.608 276.203 C 129.017 276.203,129.114 276.034,129.114 275.316 C 129.114 274.698,129.228 274.430,129.494 274.430 C 129.785 274.430,129.873 274.107,129.873 273.038 C 129.873 271.814,129.935 271.646,130.380 271.646 C 130.819 271.646,130.886 271.477,130.886 270.380 C 130.886 269.423,130.979 269.114,131.266 269.114 C 131.557 269.114,131.646 268.790,131.646 267.722 C 131.646 266.498,131.707 266.329,132.152 266.329 C 132.546 266.329,132.658 266.160,132.658 265.570 C 132.658 265.063,132.785 264.810,133.038 264.810 C 133.249 264.810,133.418 264.585,133.418 264.304 C 133.418 263.966,133.586 263.797,133.924 263.797 C 134.205 263.797,134.430 263.629,134.430 263.418 C 134.430 263.209,134.601 263.038,134.810 263.038 C 135.021 263.038,135.190 262.813,135.190 262.532 C 135.190 262.059,135.359 262.025,137.722 262.025 C 140.084 262.025,140.253 262.059,140.253 262.532 C 140.253 262.942,140.422 263.038,141.139 263.038 C 141.983 263.038,142.025 263.080,142.025 263.924 C 142.025 264.641,142.122 264.810,142.532 264.810 C 142.970 264.810,143.038 264.979,143.038 266.076 C 143.038 267.032,143.131 267.342,143.418 267.342 C 143.751 267.342,143.797 269.128,143.797 281.899 C 143.797 296.287,143.803 296.456,144.304 296.456 C 144.778 296.456,144.810 296.624,144.810 299.114 C 144.810 301.308,144.876 301.772,145.190 301.772 C 145.477 301.772,145.570 302.082,145.570 303.038 C 145.570 304.135,145.637 304.304,146.076 304.304 C 146.486 304.304,146.582 304.473,146.582 305.190 C 146.582 305.809,146.697 306.076,146.962 306.076 C 147.227 306.076,147.342 306.343,147.342 306.962 C 147.342 307.679,147.438 307.848,147.848 307.848 C 148.186 307.848,148.354 308.017,148.354 308.354 C 148.354 308.636,148.523 308.861,148.734 308.861 C 148.943 308.861,149.114 309.032,149.114 309.241 C 149.114 309.506,149.381 309.620,150.000 309.620 C 150.717 309.620,150.886 309.717,150.886 310.127 C 150.886 310.612,151.055 310.633,154.937 310.633 C 158.819 310.633,158.987 310.612,158.987 310.127 C 158.987 309.717,159.156 309.620,159.873 309.620 C 160.492 309.620,160.759 309.506,160.759 309.241 C 160.759 309.030,160.985 308.861,161.266 308.861 C 161.603 308.861,161.772 308.692,161.772 308.354 C 161.772 308.073,161.941 307.848,162.152 307.848 C 162.361 307.848,162.532 307.677,162.532 307.468 C 162.532 307.257,162.757 307.089,163.038 307.089 C 163.448 307.089,163.544 306.920,163.544 306.203 C 163.544 305.584,163.659 305.316,163.924 305.316 C 164.189 305.316,164.304 305.049,164.304 304.430 C 164.304 303.713,164.400 303.544,164.810 303.544 C 165.249 303.544,165.316 303.376,165.316 302.278 C 165.316 301.322,165.409 301.013,165.696 301.013 C 165.961 301.013,166.076 300.745,166.076 300.127 C 166.076 299.409,166.172 299.241,166.582 299.241 C 166.920 299.241,167.089 299.072,167.089 298.734 C 167.089 298.453,167.257 298.228,167.468 298.228 C 167.677 298.228,167.848 298.057,167.848 297.848 C 167.848 297.639,168.030 297.468,168.252 297.468 C 168.473 297.468,168.715 297.241,168.787 296.962 C 168.990 296.188,172.911 296.188,172.911 296.962 C 172.911 297.372,173.080 297.468,173.797 297.468 C 174.641 297.468,174.684 297.511,174.684 298.354 C 174.684 299.072,174.780 299.241,175.190 299.241 C 175.676 299.241,175.696 299.409,175.696 303.544 C 175.696 307.679,175.676 307.848,175.190 307.848 C 174.693 307.848,174.684 308.017,174.684 316.709 C 174.684 325.401,174.693 325.570,175.190 325.570 C 175.648 325.570,175.696 325.738,175.696 327.342 C 175.696 328.748,175.775 329.114,176.076 329.114 C 176.341 329.114,176.456 329.381,176.456 330.000 C 176.456 330.717,176.552 330.886,176.962 330.886 C 177.372 330.886,177.468 331.055,177.468 331.772 C 177.468 332.391,177.583 332.658,177.848 332.658 C 178.059 332.658,178.228 332.883,178.228 333.165 C 178.228 333.502,178.397 333.671,178.734 333.671 C 179.015 333.671,179.241 333.840,179.241 334.051 C 179.241 334.259,179.411 334.430,179.620 334.430 C 179.831 334.430,180.000 334.655,180.000 334.937 C 180.000 335.274,180.169 335.443,180.506 335.443 C 180.788 335.443,181.013 335.612,181.013 335.823 C 181.013 336.088,181.280 336.203,181.899 336.203 C 182.616 336.203,182.785 336.299,182.785 336.709 C 182.785 337.198,182.954 337.215,187.722 337.215 C 192.489 337.215,192.658 337.198,192.658 336.709 C 192.658 336.299,192.827 336.203,193.544 336.203 C 194.163 336.203,194.430 336.088,194.430 335.823 C 194.430 335.558,194.698 335.443,195.316 335.443 C 196.034 335.443,196.203 335.347,196.203 334.937 C 196.203 334.655,196.371 334.430,196.582 334.430 C 196.791 334.430,196.962 334.259,196.962 334.051 C 196.962 333.840,197.187 333.671,197.468 333.671 C 197.878 333.671,197.975 333.502,197.975 332.785 C 197.975 332.166,198.089 331.899,198.354 331.899 C 198.646 331.899,198.734 331.575,198.734 330.506 C 198.734 329.283,198.796 329.114,199.241 329.114 C 199.740 329.114,199.747 328.945,199.747 316.329 C 199.747 305.134,199.794 303.544,200.127 303.544 C 200.392 303.544,200.506 303.277,200.506 302.658 C 200.506 301.941,200.603 301.772,201.013 301.772 C 201.294 301.772,201.519 301.603,201.519 301.392 C 201.519 301.184,201.690 301.013,201.899 301.013 C 202.110 301.013,202.278 300.788,202.278 300.506 C 202.278 300.169,202.447 300.000,202.785 300.000 C 203.066 300.000,203.291 299.831,203.291 299.620 C 203.291 299.314,203.685 299.241,205.316 299.241 C 206.948 299.241,207.342 299.314,207.342 299.620 C 207.342 299.885,207.609 300.000,208.228 300.000 C 208.945 300.000,209.114 300.096,209.114 300.506 C 209.114 300.844,209.283 301.013,209.620 301.013 C 209.902 301.013,210.127 301.181,210.127 301.392 C 210.127 301.601,210.297 301.772,210.506 301.772 C 210.793 301.772,210.886 302.082,210.886 303.038 C 210.886 304.135,210.954 304.304,211.392 304.304 C 211.851 304.304,211.899 304.473,211.899 306.076 C 211.899 307.482,211.977 307.848,212.278 307.848 C 212.608 307.848,212.658 308.889,212.658 315.696 C 212.658 322.504,212.608 323.544,212.278 323.544 C 211.954 323.544,211.899 324.262,211.899 328.481 C 211.899 333.249,211.881 333.418,211.392 333.418 C 210.905 333.418,210.886 333.586,210.886 337.848 C 210.886 341.617,210.829 342.278,210.506 342.278 C 210.182 342.278,210.127 342.982,210.127 347.089 C 210.127 351.730,210.109 351.899,209.620 351.899 C 209.133 351.899,209.114 352.068,209.114 356.456 C 209.114 360.844,209.133 361.013,209.620 361.013 C 210.094 361.013,210.127 361.181,210.127 363.671 C 210.127 365.865,210.193 366.329,210.506 366.329 C 210.772 366.329,210.886 366.596,210.886 367.215 C 210.886 367.932,210.983 368.101,211.392 368.101 C 211.802 368.101,211.899 368.270,211.899 368.987 C 211.899 369.606,212.013 369.873,212.278 369.873 C 212.544 369.873,212.658 370.141,212.658 370.759 C 212.658 371.603,212.700 371.646,213.544 371.646 C 214.163 371.646,214.430 371.760,214.430 372.025 C 214.430 372.236,214.655 372.405,214.937 372.405 C 215.274 372.405,215.443 372.574,215.443 372.911 C 215.443 373.321,215.612 373.418,216.329 373.418 C 216.948 373.418,217.215 373.532,217.215 373.797 C 217.215 374.099,217.581 374.177,218.987 374.177 C 220.394 374.177,220.759 374.256,220.759 374.557 C 220.759 374.858,221.125 374.937,222.532 374.937 C 223.938 374.937,224.304 374.858,224.304 374.557 C 224.304 374.256,224.669 374.177,226.076 374.177 C 227.482 374.177,227.848 374.099,227.848 373.797 C 227.848 373.532,228.115 373.418,228.734 373.418 C 229.451 373.418,229.620 373.321,229.620 372.911 C 229.620 372.574,229.789 372.405,230.127 372.405 C 230.408 372.405,230.633 372.236,230.633 372.025 C 230.633 371.816,230.804 371.646,231.013 371.646 C 231.278 371.646,231.392 371.378,231.392 370.759 C 231.392 370.042,231.489 369.873,231.899 369.873 C 232.309 369.873,232.405 369.705,232.405 368.987 C 232.405 368.368,232.520 368.101,232.785 368.101 C 233.076 368.101,233.165 367.778,233.165 366.709 C 233.165 365.485,233.226 365.316,233.671 365.316 C 234.168 365.316,234.177 365.148,234.177 355.949 C 234.177 346.751,234.168 346.582,233.671 346.582 C 233.186 346.582,233.165 346.414,233.165 342.658 C 233.165 339.339,233.106 338.734,232.785 338.734 C 232.462 338.734,232.405 338.073,232.405 334.304 C 232.405 330.042,232.386 329.873,231.899 329.873 C 231.408 329.873,231.392 329.705,231.392 324.557 C 231.392 320.000,231.338 319.241,231.013 319.241 C 230.679 319.241,230.633 317.314,230.633 303.418 C 230.633 289.522,230.679 287.595,231.013 287.595 C 231.326 287.595,231.392 287.131,231.392 284.937 C 231.392 282.447,231.425 282.278,231.899 282.278 C 232.338 282.278,232.405 282.110,232.405 281.013 C 232.405 280.056,232.498 279.747,232.785 279.747 C 233.076 279.747,233.165 279.423,233.165 278.354 C 233.165 277.131,233.226 276.962,233.671 276.962 C 234.081 276.962,234.177 276.793,234.177 276.076 C 234.177 275.457,234.292 275.190,234.557 275.190 C 234.766 275.190,234.937 275.019,234.937 274.810 C 234.937 274.599,235.162 274.430,235.443 274.430 C 235.781 274.430,235.949 274.262,235.949 273.924 C 235.949 273.514,236.118 273.418,236.835 273.418 C 237.454 273.418,237.722 273.303,237.722 273.038 C 237.722 272.739,238.073 272.658,239.367 272.658 C 240.661 272.658,241.013 272.739,241.013 273.038 C 241.013 273.247,241.184 273.418,241.392 273.418 C 241.603 273.418,241.772 273.643,241.772 273.924 C 241.772 274.262,241.941 274.430,242.278 274.430 C 242.688 274.430,242.785 274.599,242.785 275.316 C 242.785 275.935,242.899 276.203,243.165 276.203 C 243.486 276.203,243.544 276.807,243.544 280.127 C 243.544 283.882,243.566 284.051,244.051 284.051 C 244.505 284.051,244.557 284.219,244.557 285.696 C 244.557 287.173,244.505 287.342,244.051 287.342 C 243.589 287.342,243.544 287.511,243.544 289.241 C 243.544 290.970,243.589 291.139,244.051 291.139 C 244.540 291.139,244.557 291.308,244.557 296.076 C 244.557 300.295,244.612 301.013,244.937 301.013 C 245.224 301.013,245.316 301.322,245.316 302.278 C 245.316 303.376,245.384 303.544,245.823 303.544 C 246.233 303.544,246.329 303.713,246.329 304.430 C 246.329 305.049,246.444 305.316,246.709 305.316 C 246.918 305.316,247.089 305.487,247.089 305.696 C 247.089 305.907,247.314 306.076,247.595 306.076 C 247.932 306.076,248.101 306.245,248.101 306.582 C 248.101 306.992,248.270 307.089,248.987 307.089 C 249.606 307.089,249.873 307.203,249.873 307.468 C 249.873 307.755,250.183 307.848,251.139 307.848 C 252.236 307.848,252.405 307.916,252.405 308.354 C 252.405 308.816,252.574 308.861,254.304 308.861 C 256.034 308.861,256.203 308.816,256.203 308.354 C 256.203 307.945,256.371 307.848,257.089 307.848 C 257.707 307.848,257.975 307.734,257.975 307.468 C 257.975 307.203,258.242 307.089,258.861 307.089 C 259.578 307.089,259.747 306.992,259.747 306.582 C 259.747 306.301,259.916 306.076,260.127 306.076 C 260.335 306.076,260.506 305.905,260.506 305.696 C 260.506 305.485,260.731 305.316,261.013 305.316 C 261.423 305.316,261.519 305.148,261.519 304.430 C 261.519 303.812,261.634 303.544,261.899 303.544 C 262.164 303.544,262.278 303.277,262.278 302.658 C 262.278 301.941,262.375 301.772,262.785 301.772 C 263.259 301.772,263.291 301.603,263.291 299.114 C 263.291 296.920,263.357 296.456,263.671 296.456 C 263.995 296.456,264.051 295.738,264.051 291.519 C 264.051 287.300,263.995 286.582,263.671 286.582 C 263.340 286.582,263.291 285.345,263.291 276.962 C 263.291 268.579,263.340 267.342,263.671 267.342 C 263.958 267.342,264.051 267.032,264.051 266.076 C 264.051 264.979,264.118 264.810,264.557 264.810 C 264.967 264.810,265.063 264.641,265.063 263.924 C 265.063 263.305,265.178 263.038,265.443 263.038 C 265.654 263.038,265.823 262.813,265.823 262.532 C 265.823 262.194,265.992 262.025,266.329 262.025 C 266.610 262.025,266.835 261.857,266.835 261.646 C 266.835 261.380,267.103 261.266,267.722 261.266 C 268.439 261.266,268.608 261.169,268.608 260.759 C 268.608 260.328,268.776 260.253,269.747 260.253 C 270.620 260.253,270.886 260.347,270.886 260.657 C 270.886 260.879,271.114 261.120,271.392 261.192 C 271.671 261.265,271.899 261.482,271.899 261.675 C 271.899 261.868,272.070 262.025,272.278 262.025 C 272.544 262.025,272.658 262.293,272.658 262.911 C 272.658 263.629,272.755 263.797,273.165 263.797 C 273.643 263.797,273.671 263.966,273.671 266.835 C 273.671 269.367,273.734 269.873,274.051 269.873 C 274.368 269.873,274.430 270.394,274.430 273.038 C 274.430 276.034,274.457 276.203,274.937 276.203 C 275.376 276.203,275.443 276.371,275.443 277.468 C 275.443 278.425,275.536 278.734,275.823 278.734 C 276.034 278.734,276.203 278.959,276.203 279.241 C 276.203 279.578,276.371 279.747,276.709 279.747 C 276.990 279.747,277.215 279.916,277.215 280.127 C 277.215 280.335,277.386 280.506,277.595 280.506 C 277.806 280.506,277.975 280.731,277.975 281.013 C 277.975 281.350,278.143 281.519,278.481 281.519 C 278.762 281.519,278.987 281.688,278.987 281.899 C 278.987 282.186,279.297 282.278,280.253 282.278 C 281.350 282.278,281.519 282.346,281.519 282.785 C 281.519 283.246,281.688 283.291,283.418 283.291 C 285.148 283.291,285.316 283.246,285.316 282.785 C 285.316 282.327,285.485 282.278,287.089 282.278 C 288.495 282.278,288.861 282.200,288.861 281.899 C 288.861 281.690,289.032 281.519,289.241 281.519 C 289.451 281.519,289.620 281.294,289.620 281.013 C 289.620 280.675,289.789 280.506,290.127 280.506 C 290.408 280.506,290.633 280.338,290.633 280.127 C 290.633 279.918,290.804 279.747,291.013 279.747 C 291.224 279.747,291.392 279.522,291.392 279.241 C 291.392 278.903,291.561 278.734,291.899 278.734 C 292.180 278.734,292.405 278.565,292.405 278.354 C 292.405 278.146,292.576 277.975,292.785 277.975 C 293.050 277.975,293.165 277.707,293.165 277.089 C 293.165 276.371,293.261 276.203,293.671 276.203 C 294.116 276.203,294.177 276.034,294.177 274.810 C 294.177 273.741,294.265 273.418,294.557 273.418 C 294.865 273.418,294.937 273.010,294.937 271.266 C 294.937 269.283,294.976 269.114,295.443 269.114 C 295.928 269.114,295.949 268.945,295.949 265.190 C 295.949 261.871,296.008 261.266,296.329 261.266 C 296.660 261.266,296.709 260.056,296.709 251.899 C 296.709 242.700,296.718 242.532,297.215 242.532 C 297.704 242.532,297.722 242.363,297.722 237.722 C 297.722 233.615,297.777 232.911,298.101 232.911 C 298.415 232.911,298.481 232.447,298.481 230.253 C 298.481 227.764,298.513 227.595,298.987 227.595 C 299.445 227.595,299.494 227.426,299.494 225.823 C 299.494 224.416,299.572 224.051,299.873 224.051 C 300.175 224.051,300.253 223.685,300.253 222.278 C 300.253 220.675,300.301 220.506,300.759 220.506 C 301.169 220.506,301.266 220.338,301.266 219.620 C 301.266 219.001,301.380 218.734,301.646 218.734 C 301.932 218.734,302.025 218.425,302.025 217.468 C 302.025 216.371,302.093 216.203,302.532 216.203 C 302.942 216.203,303.038 216.034,303.038 215.316 C 303.038 214.698,303.153 214.430,303.418 214.430 C 303.629 214.430,303.797 214.205,303.797 213.924 C 303.797 213.586,303.966 213.418,304.304 213.418 C 304.714 213.418,304.810 213.249,304.810 212.532 C 304.810 211.913,304.925 211.646,305.190 211.646 C 305.455 211.646,305.570 211.378,305.570 210.759 C 305.570 210.042,305.666 209.873,306.076 209.873 C 306.357 209.873,306.582 209.705,306.582 209.494 C 306.582 209.285,306.753 209.114,306.962 209.114 C 307.227 209.114,307.342 208.847,307.342 208.228 C 307.342 207.511,307.438 207.342,307.848 207.342 C 308.258 207.342,308.354 207.173,308.354 206.456 C 308.354 205.837,308.469 205.570,308.734 205.570 C 308.945 205.570,309.114 205.345,309.114 205.063 C 309.114 204.726,309.283 204.557,309.620 204.557 C 310.030 204.557,310.127 204.388,310.127 203.671 C 310.127 203.052,310.241 202.785,310.506 202.785 C 310.772 202.785,310.886 202.518,310.886 201.899 C 310.886 201.181,310.983 201.013,311.392 201.013 C 311.802 201.013,311.899 200.844,311.899 200.127 C 311.899 199.508,312.013 199.241,312.278 199.241 C 312.544 199.241,312.658 198.973,312.658 198.354 C 312.658 197.637,312.755 197.468,313.165 197.468 C 313.603 197.468,313.671 197.300,313.671 196.203 C 313.671 195.246,313.764 194.937,314.051 194.937 C 314.316 194.937,314.430 194.669,314.430 194.051 C 314.430 193.333,314.527 193.165,314.937 193.165 C 315.347 193.165,315.443 192.996,315.443 192.278 C 315.443 191.660,315.558 191.392,315.823 191.392 C 316.108 191.392,316.203 191.086,316.203 190.156 C 316.203 189.133,316.290 188.897,316.709 188.787 C 317.078 188.691,317.215 188.442,317.215 187.872 C 317.215 187.344,317.339 187.089,317.595 187.089 C 317.886 187.089,317.975 186.765,317.975 185.696 C 317.975 184.473,318.036 184.304,318.481 184.304 C 318.920 184.304,318.987 184.135,318.987 183.038 C 318.987 182.082,319.080 181.772,319.367 181.772 C 319.668 181.772,319.747 181.410,319.747 180.030 C 319.747 178.500,319.809 178.271,320.253 178.154 C 320.695 178.039,320.759 177.809,320.759 176.353 C 320.759 175.038,320.840 174.684,321.139 174.684 C 321.441 174.684,321.519 174.318,321.519 172.911 C 321.519 171.308,321.567 171.139,322.025 171.139 C 322.494 171.139,322.532 170.970,322.532 168.861 C 322.532 167.004,322.602 166.582,322.911 166.582 C 323.225 166.582,323.291 166.118,323.291 163.924 C 323.291 161.730,323.357 161.266,323.671 161.266 C 323.995 161.266,324.051 160.563,324.051 156.456 C 324.051 151.814,324.068 151.646,324.557 151.646 C 325.052 151.646,325.063 151.477,325.063 144.051 C 325.063 136.624,325.052 136.456,324.557 136.456 C 324.070 136.456,324.051 136.287,324.051 132.025 C 324.051 128.256,323.994 127.595,323.671 127.595 C 323.357 127.595,323.291 127.131,323.291 124.937 C 323.291 122.743,323.225 122.278,322.911 122.278 C 322.604 122.278,322.532 121.871,322.532 120.127 C 322.532 118.143,322.492 117.975,322.025 117.975 C 321.556 117.975,321.519 117.806,321.519 115.696 C 321.519 113.840,321.449 113.418,321.139 113.418 C 320.852 113.418,320.759 113.108,320.759 112.152 C 320.759 111.055,320.692 110.886,320.253 110.886 C 319.795 110.886,319.747 110.717,319.747 109.114 C 319.747 107.707,319.668 107.342,319.367 107.342 C 319.076 107.342,318.987 107.018,318.987 105.949 C 318.987 104.726,318.926 104.557,318.481 104.557 C 318.042 104.557,317.975 104.388,317.975 103.291 C 317.975 102.335,317.882 102.025,317.595 102.025 C 317.330 102.025,317.215 101.758,317.215 101.139 C 317.215 100.422,317.119 100.253,316.709 100.253 C 316.264 100.253,316.203 100.084,316.203 98.861 C 316.203 97.792,316.114 97.468,315.823 97.468 C 315.567 97.468,315.443 97.213,315.443 96.685 C 315.443 96.115,315.305 95.866,314.937 95.770 C 314.556 95.670,314.430 95.424,314.430 94.781 C 314.430 94.188,314.313 93.924,314.051 93.924 C 313.764 93.924,313.671 93.615,313.671 92.658 C 313.671 91.561,313.603 91.392,313.165 91.392 C 312.755 91.392,312.658 91.224,312.658 90.506 C 312.658 89.887,312.544 89.620,312.278 89.620 C 312.013 89.620,311.899 89.353,311.899 88.734 C 311.899 88.017,311.802 87.848,311.392 87.848 C 310.983 87.848,310.886 87.679,310.886 86.962 C 310.886 86.343,310.772 86.076,310.506 86.076 C 310.241 86.076,310.127 85.809,310.127 85.190 C 310.127 84.473,310.030 84.304,309.620 84.304 C 309.339 84.304,309.114 84.135,309.114 83.924 C 309.114 83.715,308.943 83.544,308.734 83.544 C 308.469 83.544,308.354 83.277,308.354 82.658 C 308.354 81.941,308.258 81.772,307.848 81.772 C 307.438 81.772,307.342 81.603,307.342 80.886 C 307.342 80.267,307.227 80.000,306.962 80.000 C 306.751 80.000,306.582 79.775,306.582 79.494 C 306.582 79.156,306.414 78.987,306.076 78.987 C 305.666 78.987,305.570 78.819,305.570 78.101 C 305.570 77.482,305.455 77.215,305.190 77.215 C 304.925 77.215,304.810 76.948,304.810 76.329 C 304.810 75.612,304.714 75.443,304.304 75.443 C 304.023 75.443,303.797 75.274,303.797 75.063 C 303.797 74.854,303.627 74.684,303.418 74.684 C 303.207 74.684,303.038 74.459,303.038 74.177 C 303.038 73.840,302.869 73.671,302.532 73.671 C 302.122 73.671,302.025 73.502,302.025 72.785 C 302.025 72.166,301.911 71.899,301.646 71.899 C 301.437 71.899,301.266 71.728,301.266 71.519 C 301.266 71.308,301.041 71.139,300.759 71.139 C 300.350 71.139,300.253 70.970,300.253 70.253 C 300.253 69.634,300.139 69.367,299.873 69.367 C 299.662 69.367,299.494 69.142,299.494 68.861 C 299.494 68.523,299.325 68.354,298.987 68.354 C 298.706 68.354,298.481 68.186,298.481 67.975 C 298.481 67.766,298.310 67.595,298.101 67.595 C 297.890 67.595,297.722 67.370,297.722 67.089 C 297.722 66.751,297.553 66.582,297.215 66.582 C 296.805 66.582,296.709 66.414,296.709 65.696 C 296.709 65.077,296.594 64.810,296.329 64.810 C 296.120 64.810,295.949 64.639,295.949 64.430 C 295.949 64.219,295.724 64.051,295.443 64.051 C 295.105 64.051,294.937 63.882,294.937 63.544 C 294.937 63.263,294.768 63.038,294.557 63.038 C 294.348 63.038,294.177 62.867,294.177 62.658 C 294.177 62.447,293.952 62.278,293.671 62.278 C 293.333 62.278,293.165 62.110,293.165 61.772 C 293.165 61.491,292.996 61.266,292.785 61.266 C 292.576 61.266,292.405 61.095,292.405 60.886 C 292.405 60.675,292.180 60.506,291.899 60.506 C 291.561 60.506,291.392 60.338,291.392 60.000 C 291.392 59.719,291.224 59.494,291.013 59.494 C 290.747 59.494,290.633 59.226,290.633 58.608 C 290.633 57.890,290.536 57.722,290.127 57.722 C 289.845 57.722,289.620 57.553,289.620 57.342 C 289.620 57.133,289.449 56.962,289.241 56.962 C 289.032 56.962,288.861 56.791,288.861 56.582 C 288.861 56.371,288.636 56.203,288.354 56.203 C 288.017 56.203,287.848 56.034,287.848 55.696 C 287.848 55.415,287.679 55.190,287.468 55.190 C 287.259 55.190,287.089 55.019,287.089 54.810 C 287.089 54.601,286.918 54.430,286.709 54.430 C 286.498 54.430,286.329 54.205,286.329 53.924 C 286.329 53.586,286.160 53.418,285.823 53.418 C 285.541 53.418,285.316 53.249,285.316 53.038 C 285.316 52.773,285.049 52.658,284.430 52.658 C 283.713 52.658,283.544 52.562,283.544 52.152 C 283.544 51.871,283.376 51.646,283.165 51.646 C 282.956 51.646,282.785 51.475,282.785 51.266 C 282.785 51.055,282.560 50.886,282.278 50.886 C 281.941 50.886,281.772 50.717,281.772 50.380 C 281.772 50.098,281.603 49.873,281.392 49.873 C 281.184 49.873,281.013 49.703,281.013 49.494 C 281.013 49.283,280.788 49.114,280.506 49.114 C 280.169 49.114,280.000 48.945,280.000 48.608 C 280.000 48.326,279.831 48.101,279.620 48.101 C 279.411 48.101,279.241 47.930,279.241 47.722 C 279.241 47.511,279.015 47.342,278.734 47.342 C 278.397 47.342,278.228 47.173,278.228 46.835 C 278.228 46.426,278.059 46.329,277.342 46.329 C 276.723 46.329,276.456 46.215,276.456 45.949 C 276.456 45.741,276.285 45.570,276.076 45.570 C 275.865 45.570,275.696 45.345,275.696 45.063 C 275.696 44.726,275.527 44.557,275.190 44.557 C 274.909 44.557,274.684 44.388,274.684 44.177 C 274.684 43.912,274.416 43.797,273.797 43.797 C 273.080 43.797,272.911 43.701,272.911 43.291 C 272.911 43.010,272.743 42.785,272.532 42.785 C 272.323 42.785,272.152 42.614,272.152 42.405 C 272.152 42.194,271.927 42.025,271.646 42.025 C 271.308 42.025,271.139 41.857,271.139 41.519 C 271.139 41.109,270.970 41.013,270.253 41.013 C 269.634 41.013,269.367 40.898,269.367 40.633 C 269.367 40.368,269.100 40.253,268.481 40.253 C 267.764 40.253,267.595 40.157,267.595 39.747 C 267.595 39.466,267.426 39.241,267.215 39.241 C 267.006 39.241,266.835 39.070,266.835 38.861 C 266.835 38.596,266.568 38.481,265.949 38.481 C 265.232 38.481,265.063 38.385,265.063 37.975 C 265.063 37.637,264.895 37.468,264.557 37.468 C 264.276 37.468,264.051 37.300,264.051 37.089 C 264.051 36.823,263.783 36.709,263.165 36.709 C 262.447 36.709,262.278 36.612,262.278 36.203 C 262.278 35.793,262.110 35.696,261.392 35.696 C 260.774 35.696,260.506 35.582,260.506 35.316 C 260.506 35.051,260.239 34.937,259.620 34.937 C 258.903 34.937,258.734 34.840,258.734 34.430 C 258.734 34.149,258.565 33.924,258.354 33.924 C 258.146 33.924,257.975 33.753,257.975 33.544 C 257.975 33.279,257.707 33.165,257.089 33.165 C 256.371 33.165,256.203 33.068,256.203 32.658 C 256.203 32.248,256.034 32.152,255.316 32.152 C 254.698 32.152,254.430 32.037,254.430 31.772 C 254.430 31.507,254.163 31.392,253.544 31.392 C 252.827 31.392,252.658 31.296,252.658 30.886 C 252.658 30.447,252.489 30.380,251.392 30.380 C 250.436 30.380,250.127 30.287,250.127 30.000 C 250.127 29.737,249.863 29.620,249.270 29.620 C 248.626 29.620,248.381 29.494,248.281 29.114 C 248.185 28.745,247.936 28.608,247.365 28.608 C 246.838 28.608,246.582 28.484,246.582 28.228 C 246.582 27.936,246.259 27.848,245.190 27.848 C 243.966 27.848,243.797 27.787,243.797 27.342 C 243.797 26.903,243.629 26.835,242.532 26.835 C 241.575 26.835,241.266 26.743,241.266 26.456 C 241.266 26.164,240.942 26.076,239.873 26.076 C 238.650 26.076,238.481 26.015,238.481 25.570 C 238.481 25.131,238.312 25.063,237.215 25.063 C 236.259 25.063,235.949 24.970,235.949 24.684 C 235.949 24.392,235.626 24.304,234.557 24.304 C 233.333 24.304,233.165 24.242,233.165 23.797 C 233.165 23.339,232.996 23.291,231.392 23.291 C 229.986 23.291,229.620 23.213,229.620 22.911 C 229.620 22.610,229.255 22.532,227.848 22.532 C 226.245 22.532,226.076 22.483,226.076 22.025 C 226.076 21.559,225.907 21.519,223.924 21.519 C 222.180 21.519,221.772 21.447,221.772 21.139 C 221.772 20.822,221.252 20.759,218.608 20.759 C 215.963 20.759,215.443 20.697,215.443 20.380 C 215.443 20.056,214.740 20.000,210.633 20.000 C 205.992 20.000,205.823 19.982,205.823 19.494 C 205.823 19.002,205.654 18.987,200.000 18.987 C 194.346 18.987,194.177 19.002,194.177 19.494 " ></path></g></svg>
